<svg width="100%" height="100%" viewBox="0 0 36 36" version="1.1" xmlns="http://www.w3.org/2000/svg" xmlns:xlink="http://www.w3.org/1999/xlink" xml:space="preserve" xmlns:serif="http://www.serif.com/" style="fill-rule:evenodd;clip-rule:evenodd;stroke-linejoin:round;stroke-miterlimit:2;">
    <rect x="0" y="0" width="36" height="36" style="fill:none;"/>
    <path d="M29.91,8.069c-1.127,-1.337 -2.467,-2.481 -3.964,-3.386l-2.301,1.396c-1.518,-0.735 -3.158,-1.18 -4.832,-1.31l-1.332,-2.381c-1.736,0.028 -3.45,0.344 -5.073,0.936l-0.31,2.683c-1.503,0.716 -2.852,1.712 -3.976,2.934l-2.679,-0.477c-1.037,1.372 -1.836,2.91 -2.362,4.552l1.914,1.95c-0.355,1.628 -0.398,3.314 -0.125,4.969l-2.009,1.785c0.442,1.683 1.161,3.285 2.127,4.741l2.697,-0.251c1.06,1.314 2.356,2.421 3.82,3.262l0.173,2.703c1.589,0.727 3.284,1.186 5.015,1.36l1.449,-2.264c1.677,0.011 3.336,-0.295 4.889,-0.901l2.225,1.586c1.54,-0.777 2.934,-1.806 4.127,-3.045l-0.891,-2.571c1.032,-1.302 1.804,-2.79 2.277,-4.387l2.601,-0.725c0.33,-1.695 0.375,-3.438 0.131,-5.157l-2.56,-0.943c-0.39,-1.633 -1.086,-3.183 -2.05,-4.568l1.019,-2.491Z" style="fill:rgb(0,116,202);"/>
    <path d="M31.761,8.826l0.459,-1.121l-0.781,-0.926c-1.268,-1.503 -2.775,-2.79 -4.458,-3.807l-1.037,-0.627l-2.447,1.485c-1.108,-0.442 -2.262,-0.754 -3.439,-0.931c0.001,-0 -1.414,-2.53 -1.414,-2.53l-1.195,0.02c-1.959,0.031 -3.894,0.388 -5.726,1.056l-1.16,0.422l-0.33,2.861c-1.008,0.577 -1.945,1.268 -2.791,2.061c-0,-0.001 -2.855,-0.509 -2.855,-0.509l-0.739,0.977c-1.173,1.552 -2.076,3.291 -2.672,5.148l-0.368,1.15l2.037,2.075c-0.166,1.16 -0.196,2.338 -0.091,3.51c-0,-0 -2.14,1.901 -2.14,1.901l0.312,1.188c0.498,1.894 1.308,3.698 2.395,5.338l0.662,0.996l2.865,-0.267c0.816,0.878 1.732,1.66 2.727,2.329c-0,-0 0.184,2.872 0.184,2.872l1.088,0.497c1.789,0.818 3.697,1.335 5.647,1.531l1.222,0.123l1.543,-2.411c1.173,-0.079 2.332,-0.294 3.453,-0.639c-0.001,0 2.367,1.688 2.367,1.688l1.078,-0.544c1.741,-0.879 3.318,-2.043 4.667,-3.444l0.85,-0.884l-0.949,-2.739c0.65,-0.96 1.186,-1.994 1.599,-3.079c-0,-0 2.773,-0.774 2.773,-0.774l0.236,-1.212c0.373,-1.913 0.423,-3.88 0.148,-5.82l-0.168,-1.183l-2.72,-1.002c-0.358,-1.134 -0.847,-2.226 -1.457,-3.252c0,0.001 0.625,-1.527 0.625,-1.527Zm-1.851,-0.757c-1.127,-1.337 -2.467,-2.481 -3.964,-3.386l-2.301,1.396c-1.518,-0.735 -3.158,-1.18 -4.832,-1.31l-1.332,-2.381c-1.736,0.028 -3.45,0.344 -5.073,0.936l-0.31,2.683c-1.503,0.716 -2.852,1.712 -3.976,2.934l-2.679,-0.477c-1.037,1.372 -1.836,2.91 -2.362,4.552l1.914,1.95c-0.355,1.628 -0.398,3.314 -0.125,4.969l-2.009,1.785c0.442,1.683 1.161,3.285 2.127,4.741l2.697,-0.251c1.06,1.314 2.356,2.421 3.82,3.262l0.173,2.703c1.589,0.727 3.284,1.186 5.015,1.36l1.449,-2.264c1.677,0.011 3.336,-0.295 4.889,-0.901l2.225,1.586c1.54,-0.777 2.934,-1.806 4.127,-3.045l-0.891,-2.571c1.032,-1.302 1.804,-2.79 2.277,-4.387l2.601,-0.725c0.33,-1.695 0.375,-3.438 0.131,-5.157l-2.56,-0.943c-0.39,-1.633 -1.086,-3.183 -2.05,-4.568l1.019,-2.491Z" style="fill:white;"/>
</svg>