<svg width="100%" height="100%" viewBox="0 0 64 64" version="1.1" xmlns="http://www.w3.org/2000/svg" xmlns:xlink="http://www.w3.org/1999/xlink" xml:space="preserve" xmlns:serif="http://www.serif.com/" style="fill-rule:evenodd;clip-rule:evenodd;stroke-linejoin:round;stroke-miterlimit:2;">
    <rect id="ICON_TOOLBAR_INPUT_VIEWER" x="0" y="0" width="64" height="64" style="fill:none;"/>
    <g>
        <path d="M32.75,28l0,-5l-1.5,0l0,5l1.5,0Z"/>
        <rect x="29.5" y="31.5" width="5" height="1"/>
        <path d="M32.5,34.5l0,-5l-1,0l0,5l1,0Z"/>
        <rect x="36" y="31.25" width="5" height="1.5"/>
        <path d="M32.75,41l-0,-5l-1.5,0l0,5l1.5,0Z"/>
        <rect x="23" y="31.25" width="5" height="1.5"/>
    </g>
    <path d="M37.168,32l-5.168,-5.168l-5.168,5.168l5.168,5.168l5.168,-5.168Zm-2.828,0l-2.34,2.34c-0,-0 -2.34,-2.34 -2.34,-2.34c0,-0 2.34,-2.34 2.34,-2.34l2.34,2.34Z"/>
    <path d="M46,18l-28,-0l-0,28l28,-0l-0,-28Zm-2,2l-0,24c-0,-0 -24,-0 -24,-0c-0,-0 -0,-24 -0,-24l24,0Z"/>
    <rect x="28" y="43" width="8" height="3"/>
    <path d="M21,36l-0,-8l-3,-0l-0,8l3,0Z"/>
    <path d="M46,36l-0,-8l-3,0l-0,8l3,0Z"/>
    <rect x="28" y="18" width="8" height="3"/>
</svg>
