<svg width="100%" height="100%" viewBox="0 0 64 64" version="1.1" xmlns="http://www.w3.org/2000/svg" xmlns:xlink="http://www.w3.org/1999/xlink" xml:space="preserve" xmlns:serif="http://www.serif.com/" style="fill-rule:evenodd;clip-rule:evenodd;stroke-linejoin:round;stroke-miterlimit:2;">
    <path id="Cog" d="M40.353,16.21c-1.726,-0.942 -3.598,-1.586 -5.538,-1.904c-0.737,1.337 -1.363,2.724 -1.876,4.161c-1.162,-0.084 -2.329,-0.012 -3.472,0.214c-0.686,-1.363 -1.477,-2.663 -2.372,-3.899c-1.887,0.554 -3.666,1.423 -5.263,2.57c0.424,1.466 0.963,2.889 1.616,4.268c-0.88,0.762 -1.655,1.639 -2.304,2.607c-1.449,-0.479 -2.927,-0.839 -4.434,-1.08c-0.942,1.726 -1.586,3.598 -1.904,5.538c1.337,0.737 2.724,1.363 4.161,1.876c-0.084,1.162 -0.012,2.329 0.214,3.472c-1.363,0.686 -2.663,1.477 -3.899,2.372c0.554,1.887 1.423,3.666 2.57,5.263c1.466,-0.424 2.889,-0.963 4.268,-1.616c0.762,0.88 1.639,1.655 2.607,2.304c-0.479,1.449 -0.839,2.927 -1.08,4.434c1.726,0.942 3.598,1.586 5.538,1.904c0.737,-1.337 1.363,-2.724 1.876,-4.161c1.162,0.084 2.329,0.012 3.472,-0.214c0.686,1.363 1.477,2.663 2.372,3.899c1.887,-0.554 3.666,-1.423 5.263,-2.57c-0.424,-1.466 -0.963,-2.889 -1.616,-4.268c0.88,-0.762 1.655,-1.639 2.304,-2.607c1.449,0.479 2.927,0.839 4.434,1.08c0.942,-1.726 1.586,-3.598 1.904,-5.538c-1.337,-0.737 -2.724,-1.363 -4.161,-1.876c0.084,-1.162 0.012,-2.329 -0.214,-3.472c1.363,-0.686 2.663,-1.477 3.899,-2.372c-0.554,-1.887 -1.423,-3.666 -2.57,-5.263c-1.466,0.424 -2.889,0.963 -4.268,1.616c-0.762,-0.88 -1.639,-1.655 -2.607,-2.304c0.479,-1.449 0.839,-2.927 1.08,-4.434Zm-6.371,9.523c3.183,1.094 4.879,4.567 3.785,7.749c-1.094,3.183 -4.567,4.879 -7.749,3.785c-3.183,-1.094 -4.879,-4.567 -3.785,-7.749c1.094,-3.183 4.567,-4.879 7.749,-3.785Z"/>
</svg>
