<svg width="100%" height="100%" viewBox="0 0 36 36" version="1.1" xmlns="http://www.w3.org/2000/svg" xmlns:xlink="http://www.w3.org/1999/xlink" xml:space="preserve" xmlns:serif="http://www.serif.com/" style="fill-rule:evenodd;clip-rule:evenodd;stroke-linejoin:round;stroke-miterlimit:2;">
    <rect x="0" y="0" width="36" height="36" style="fill:none;"/>
    <path d="M24.493,0.993c2.148,5.736 6.305,10.851 11.482,14.126c-3.894,4.729 -6.244,10.887 -6.493,17.008c-6.042,-1.008 -12.55,0.035 -17.975,2.88c-2.148,-5.736 -6.305,-10.851 -11.482,-14.126c3.894,-4.729 6.244,-10.887 6.493,-17.008c6.042,1.008 12.55,-0.035 17.975,-2.88Z" style="fill:rgb(208,11,11);"/>
    <path d="M24.493,0.993c2.148,5.736 6.305,10.851 11.482,14.126c-3.894,4.729 -6.244,10.887 -6.493,17.008c-6.042,-1.008 -12.55,0.035 -17.975,2.88c-2.148,-5.736 -6.305,-10.851 -11.482,-14.126c3.894,-4.729 6.244,-10.887 6.493,-17.008c6.042,1.008 12.55,-0.035 17.975,-2.88Zm-1.034,2.709c2.151,4.655 5.535,8.819 9.653,11.876c-2.956,4.191 -4.87,9.204 -5.459,14.299c-5.107,-0.466 -10.405,0.384 -15.112,2.421c-2.151,-4.655 -5.535,-8.819 -9.653,-11.876c2.956,-4.191 4.87,-9.204 5.459,-14.299c5.107,0.466 10.405,-0.384 15.112,-2.421Z" style="fill:white;"/>
</svg>